<svg width="90" height="38" viewBox="0 0 90 38" fill="none" xmlns="http://www.w3.org/2000/svg">
<rect width="90" height="38" rx="4" fill="#D72344"/>
<path d="M26.76 22.32V17.2H38.664C38.8347 19.12 38.6853 20.912 38.216 22.576C37.768 24.24 37.032 25.7013 36.008 26.96C34.984 28.2187 33.6933 29.2 32.136 29.904C30.5787 30.608 28.7867 30.96 26.76 30.96C24.8827 30.96 23.1653 30.672 21.608 30.096C20.0507 29.52 18.696 28.6987 17.544 27.632C16.4133 26.5653 15.528 25.2853 14.888 23.792C14.2693 22.2987 13.96 20.6347 13.96 18.8C13.96 16.9653 14.2907 15.3227 14.952 13.872C15.6133 12.4 16.5307 11.152 17.704 10.128C18.8987 9.104 20.2853 8.32533 21.864 7.792C23.464 7.23733 25.2027 6.96 27.08 6.96C28.7867 6.96 30.2907 7.216 31.592 7.728C32.9147 8.24 34.0667 8.92267 35.048 9.776C36.0507 10.608 36.9253 11.5467 37.672 12.592L31.112 15.536C30.728 14.832 30.2267 14.2133 29.608 13.68C28.9893 13.1467 28.1467 12.88 27.08 12.88C26.0347 12.88 25.0747 13.104 24.2 13.552C23.3253 13.9787 22.6213 14.6293 22.088 15.504C21.576 16.3787 21.32 17.4773 21.32 18.8C21.32 20.1013 21.5547 21.2213 22.024 22.16C22.5147 23.0987 23.1867 23.8133 24.04 24.304C24.9147 24.7947 25.928 25.04 27.08 25.04C27.72 25.04 28.296 24.976 28.808 24.848C29.32 24.72 29.7573 24.5387 30.12 24.304C30.504 24.0693 30.8347 23.7813 31.112 23.44C31.3893 23.0987 31.624 22.7253 31.816 22.32H26.76ZM40.9325 10.096C40.9325 9.15733 41.2632 8.4 41.9245 7.824C42.6072 7.248 43.4285 6.96 44.3885 6.96C45.3485 6.96 46.1592 7.248 46.8205 7.824C47.5032 8.4 47.8445 9.15733 47.8445 10.096C47.8445 11.0347 47.5032 11.792 46.8205 12.368C46.1592 12.944 45.3485 13.232 44.3885 13.232C43.4285 13.232 42.6072 12.944 41.9245 12.368C41.2632 11.792 40.9325 11.0347 40.9325 10.096ZM41.3805 15.28H47.3645V30H41.3805V15.28ZM60.1688 21.04C60.1688 20.3787 60.0728 19.8667 59.8808 19.504C59.6888 19.12 59.2728 18.928 58.6328 18.928C58.2701 18.928 57.9501 19.0027 57.6728 19.152C57.3954 19.3013 57.1821 19.536 57.0328 19.856C56.8834 20.1547 56.8088 20.5493 56.8088 21.04V30H50.5688V15.28H56.8088V17.424C57.2141 16.6773 57.7794 16.08 58.5048 15.632C59.2514 15.1627 60.2008 14.928 61.3528 14.928C63.3581 14.928 64.7554 15.408 65.5448 16.368C66.3341 17.3067 66.7288 18.6507 66.7288 20.4V30H60.1688V21.04ZM69.4638 10.096C69.4638 9.15733 69.7944 8.4 70.4557 7.824C71.1384 7.248 71.9598 6.96 72.9198 6.96C73.8798 6.96 74.6904 7.248 75.3518 7.824C76.0344 8.4 76.3758 9.15733 76.3758 10.096C76.3758 11.0347 76.0344 11.792 75.3518 12.368C74.6904 12.944 73.8798 13.232 72.9198 13.232C71.9598 13.232 71.1384 12.944 70.4557 12.368C69.7944 11.792 69.4638 11.0347 69.4638 10.096ZM69.9118 15.28H75.8958V30H69.9118V15.28Z" fill="white"/>
</svg>
